<mxfile host="app.diagrams.net" agent="Mozilla/5.0 (Windows NT 10.0; Win64; x64) AppleWebKit/537.36 (KHTML, like Gecko) Chrome/127.0.0.0 Safari/537.36" version="24.7.7">
  <diagram name="Page-1" id="5RFS6PkSUqbe-NLGfbNF">
    <mxGraphModel dx="2197" dy="824" grid="1" gridSize="10" guides="1" tooltips="1" connect="1" arrows="1" fold="1" page="1" pageScale="1" pageWidth="850" pageHeight="1100" math="0" shadow="0">
      <root>
        <mxCell id="0" />
        <mxCell id="1" parent="0" />
        <mxCell id="A9zCDarpGeHdjnioQFhf-1" value="" style="shape=or;whiteSpace=wrap;html=1;" vertex="1" parent="1">
          <mxGeometry x="560" y="80" width="30" height="40" as="geometry" />
        </mxCell>
        <mxCell id="A9zCDarpGeHdjnioQFhf-2" value="" style="group" vertex="1" connectable="0" parent="1">
          <mxGeometry x="560" y="160" width="40" height="40" as="geometry" />
        </mxCell>
        <mxCell id="A9zCDarpGeHdjnioQFhf-3" value="" style="shape=or;whiteSpace=wrap;html=1;" vertex="1" parent="A9zCDarpGeHdjnioQFhf-2">
          <mxGeometry width="30" height="40" as="geometry" />
        </mxCell>
        <mxCell id="A9zCDarpGeHdjnioQFhf-4" value="" style="ellipse;whiteSpace=wrap;html=1;aspect=fixed;" vertex="1" parent="A9zCDarpGeHdjnioQFhf-2">
          <mxGeometry x="30" y="15" width="10" height="10" as="geometry" />
        </mxCell>
        <mxCell id="A9zCDarpGeHdjnioQFhf-5" value="" style="shape=xor;whiteSpace=wrap;html=1;" vertex="1" parent="1">
          <mxGeometry x="640" y="80" width="30" height="40" as="geometry" />
        </mxCell>
        <mxCell id="A9zCDarpGeHdjnioQFhf-6" value="" style="ellipse;whiteSpace=wrap;html=1;aspect=fixed;" vertex="1" parent="1">
          <mxGeometry x="400" y="170" width="10" height="10" as="geometry" />
        </mxCell>
        <mxCell id="A9zCDarpGeHdjnioQFhf-7" value="" style="group" vertex="1" connectable="0" parent="1">
          <mxGeometry x="640" y="160" width="40" height="40" as="geometry" />
        </mxCell>
        <mxCell id="A9zCDarpGeHdjnioQFhf-8" value="" style="shape=xor;whiteSpace=wrap;html=1;" vertex="1" parent="A9zCDarpGeHdjnioQFhf-7">
          <mxGeometry width="30" height="40" as="geometry" />
        </mxCell>
        <mxCell id="A9zCDarpGeHdjnioQFhf-9" value="" style="ellipse;whiteSpace=wrap;html=1;aspect=fixed;" vertex="1" parent="A9zCDarpGeHdjnioQFhf-7">
          <mxGeometry x="30" y="15" width="10" height="10" as="geometry" />
        </mxCell>
        <mxCell id="A9zCDarpGeHdjnioQFhf-10" value="" style="verticalLabelPosition=bottom;shadow=0;dashed=0;align=center;html=1;verticalAlign=top;shape=mxgraph.electrical.logic_gates.logic_gate;operation=xor;" vertex="1" parent="1">
          <mxGeometry x="715" y="80" width="45" height="40" as="geometry" />
        </mxCell>
        <mxCell id="A9zCDarpGeHdjnioQFhf-11" value="" style="group" vertex="1" connectable="0" parent="1">
          <mxGeometry x="715" y="160" width="45" height="40" as="geometry" />
        </mxCell>
        <mxCell id="A9zCDarpGeHdjnioQFhf-12" value="" style="verticalLabelPosition=bottom;shadow=0;dashed=0;align=center;html=1;verticalAlign=top;shape=mxgraph.electrical.logic_gates.logic_gate;operation=xor;" vertex="1" parent="A9zCDarpGeHdjnioQFhf-11">
          <mxGeometry width="45" height="40" as="geometry" />
        </mxCell>
        <mxCell id="A9zCDarpGeHdjnioQFhf-13" value="" style="ellipse;whiteSpace=wrap;html=1;aspect=fixed;" vertex="1" parent="A9zCDarpGeHdjnioQFhf-11">
          <mxGeometry x="35" y="15" width="10" height="10" as="geometry" />
        </mxCell>
        <mxCell id="A9zCDarpGeHdjnioQFhf-14" value="" style="triangle;whiteSpace=wrap;html=1;" vertex="1" parent="1">
          <mxGeometry x="800" y="80" width="30" height="40" as="geometry" />
        </mxCell>
        <mxCell id="A9zCDarpGeHdjnioQFhf-15" value="" style="group" vertex="1" connectable="0" parent="1">
          <mxGeometry x="800" y="160" width="40" height="40" as="geometry" />
        </mxCell>
        <mxCell id="A9zCDarpGeHdjnioQFhf-16" value="" style="triangle;whiteSpace=wrap;html=1;" vertex="1" parent="A9zCDarpGeHdjnioQFhf-15">
          <mxGeometry width="30" height="40" as="geometry" />
        </mxCell>
        <mxCell id="A9zCDarpGeHdjnioQFhf-17" style="edgeStyle=none;rounded=0;orthogonalLoop=1;jettySize=auto;html=1;exitX=0.5;exitY=0;exitDx=0;exitDy=0;" edge="1" parent="A9zCDarpGeHdjnioQFhf-15" source="A9zCDarpGeHdjnioQFhf-16" target="A9zCDarpGeHdjnioQFhf-16">
          <mxGeometry relative="1" as="geometry" />
        </mxCell>
        <mxCell id="A9zCDarpGeHdjnioQFhf-18" value="" style="ellipse;whiteSpace=wrap;html=1;aspect=fixed;" vertex="1" parent="A9zCDarpGeHdjnioQFhf-15">
          <mxGeometry x="30" y="15" width="10" height="10" as="geometry" />
        </mxCell>
        <mxCell id="A9zCDarpGeHdjnioQFhf-19" value="" style="ellipse;shape=cloud;whiteSpace=wrap;html=1;" vertex="1" parent="1">
          <mxGeometry x="480" y="790" width="120" height="80" as="geometry" />
        </mxCell>
        <mxCell id="A9zCDarpGeHdjnioQFhf-20" value="" style="group" vertex="1" connectable="0" parent="1">
          <mxGeometry x="120.5" y="30" width="60" height="90" as="geometry" />
        </mxCell>
        <mxCell id="A9zCDarpGeHdjnioQFhf-21" value="" style="rounded=0;whiteSpace=wrap;html=1;" vertex="1" parent="A9zCDarpGeHdjnioQFhf-20">
          <mxGeometry y="10" width="60" height="80" as="geometry" />
        </mxCell>
        <mxCell id="A9zCDarpGeHdjnioQFhf-22" value="" style="triangle;whiteSpace=wrap;html=1;rotation=0;" vertex="1" parent="A9zCDarpGeHdjnioQFhf-20">
          <mxGeometry y="60" width="15" height="20" as="geometry" />
        </mxCell>
        <mxCell id="A9zCDarpGeHdjnioQFhf-23" value="" style="ellipse;whiteSpace=wrap;html=1;aspect=fixed;" vertex="1" parent="A9zCDarpGeHdjnioQFhf-20">
          <mxGeometry x="25" width="10" height="10" as="geometry" />
        </mxCell>
        <mxCell id="A9zCDarpGeHdjnioQFhf-24" value="S" style="text;html=1;align=center;verticalAlign=middle;whiteSpace=wrap;rounded=0;" vertex="1" parent="A9zCDarpGeHdjnioQFhf-20">
          <mxGeometry y="10" width="60" height="20" as="geometry" />
        </mxCell>
        <mxCell id="A9zCDarpGeHdjnioQFhf-25" value="" style="group" vertex="1" connectable="0" parent="1">
          <mxGeometry x="240" y="40" width="60" height="80" as="geometry" />
        </mxCell>
        <mxCell id="A9zCDarpGeHdjnioQFhf-26" value="" style="rounded=0;whiteSpace=wrap;html=1;" vertex="1" parent="A9zCDarpGeHdjnioQFhf-25">
          <mxGeometry width="60" height="80" as="geometry" />
        </mxCell>
        <mxCell id="A9zCDarpGeHdjnioQFhf-27" value="" style="triangle;whiteSpace=wrap;html=1;rotation=0;" vertex="1" parent="A9zCDarpGeHdjnioQFhf-25">
          <mxGeometry y="50" width="15" height="20" as="geometry" />
        </mxCell>
        <mxCell id="A9zCDarpGeHdjnioQFhf-28" value="" style="group" vertex="1" connectable="0" parent="1">
          <mxGeometry x="360" y="40" width="60" height="90" as="geometry" />
        </mxCell>
        <mxCell id="A9zCDarpGeHdjnioQFhf-29" value="" style="rounded=0;whiteSpace=wrap;html=1;" vertex="1" parent="A9zCDarpGeHdjnioQFhf-28">
          <mxGeometry width="60" height="80" as="geometry" />
        </mxCell>
        <mxCell id="A9zCDarpGeHdjnioQFhf-30" value="" style="triangle;whiteSpace=wrap;html=1;rotation=0;" vertex="1" parent="A9zCDarpGeHdjnioQFhf-28">
          <mxGeometry y="50" width="15" height="20" as="geometry" />
        </mxCell>
        <mxCell id="A9zCDarpGeHdjnioQFhf-31" value="" style="ellipse;whiteSpace=wrap;html=1;aspect=fixed;" vertex="1" parent="A9zCDarpGeHdjnioQFhf-28">
          <mxGeometry x="25" y="80" width="10" height="10" as="geometry" />
        </mxCell>
        <mxCell id="A9zCDarpGeHdjnioQFhf-32" value="R" style="text;html=1;align=center;verticalAlign=middle;whiteSpace=wrap;rounded=0;" vertex="1" parent="A9zCDarpGeHdjnioQFhf-28">
          <mxGeometry y="60" width="60" height="20" as="geometry" />
        </mxCell>
        <mxCell id="A9zCDarpGeHdjnioQFhf-33" value="" style="group" vertex="1" connectable="0" parent="1">
          <mxGeometry x="685" y="800" width="60" height="90" as="geometry" />
        </mxCell>
        <mxCell id="A9zCDarpGeHdjnioQFhf-34" value="" style="rounded=0;whiteSpace=wrap;html=1;" vertex="1" parent="A9zCDarpGeHdjnioQFhf-33">
          <mxGeometry y="10" width="60" height="80" as="geometry" />
        </mxCell>
        <mxCell id="A9zCDarpGeHdjnioQFhf-35" value="" style="triangle;whiteSpace=wrap;html=1;rotation=0;" vertex="1" parent="A9zCDarpGeHdjnioQFhf-33">
          <mxGeometry y="60" width="15" height="20" as="geometry" />
        </mxCell>
        <mxCell id="A9zCDarpGeHdjnioQFhf-36" value="" style="ellipse;whiteSpace=wrap;html=1;aspect=fixed;" vertex="1" parent="A9zCDarpGeHdjnioQFhf-33">
          <mxGeometry x="25" width="10" height="10" as="geometry" />
        </mxCell>
        <mxCell id="A9zCDarpGeHdjnioQFhf-37" value="S" style="text;html=1;align=center;verticalAlign=middle;whiteSpace=wrap;rounded=0;" vertex="1" parent="A9zCDarpGeHdjnioQFhf-33">
          <mxGeometry y="10" width="60" height="20" as="geometry" />
        </mxCell>
        <mxCell id="A9zCDarpGeHdjnioQFhf-38" style="edgeStyle=orthogonalEdgeStyle;shape=connector;rounded=0;orthogonalLoop=1;jettySize=auto;html=1;strokeColor=default;align=center;verticalAlign=middle;fontFamily=Helvetica;fontSize=11;fontColor=default;labelBackgroundColor=default;endArrow=none;endFill=0;exitX=0;exitY=0.25;exitDx=0;exitDy=0;" edge="1" parent="1" source="A9zCDarpGeHdjnioQFhf-34" target="A9zCDarpGeHdjnioQFhf-19">
          <mxGeometry relative="1" as="geometry" />
        </mxCell>
        <mxCell id="A9zCDarpGeHdjnioQFhf-39" style="edgeStyle=orthogonalEdgeStyle;shape=connector;rounded=0;orthogonalLoop=1;jettySize=auto;html=1;entryX=1;entryY=0.25;entryDx=0;entryDy=0;strokeColor=default;align=center;verticalAlign=middle;fontFamily=Helvetica;fontSize=11;fontColor=default;labelBackgroundColor=default;endArrow=none;endFill=0;exitX=0;exitY=0.25;exitDx=0;exitDy=0;exitPerimeter=0;" edge="1" parent="1" source="A9zCDarpGeHdjnioQFhf-41" target="A9zCDarpGeHdjnioQFhf-49">
          <mxGeometry relative="1" as="geometry" />
        </mxCell>
        <mxCell id="A9zCDarpGeHdjnioQFhf-40" style="edgeStyle=orthogonalEdgeStyle;shape=connector;rounded=0;orthogonalLoop=1;jettySize=auto;html=1;entryX=1;entryY=0.25;entryDx=0;entryDy=0;strokeColor=default;align=center;verticalAlign=middle;fontFamily=Helvetica;fontSize=11;fontColor=default;labelBackgroundColor=default;endArrow=none;endFill=0;" edge="1" parent="1" source="A9zCDarpGeHdjnioQFhf-41" target="A9zCDarpGeHdjnioQFhf-60">
          <mxGeometry relative="1" as="geometry">
            <Array as="points">
              <mxPoint x="355" y="490" />
              <mxPoint x="355" y="540" />
            </Array>
          </mxGeometry>
        </mxCell>
        <mxCell id="A9zCDarpGeHdjnioQFhf-41" value="" style="shape=or;whiteSpace=wrap;html=1;" vertex="1" parent="1">
          <mxGeometry x="430" y="470" width="30" height="40" as="geometry" />
        </mxCell>
        <mxCell id="A9zCDarpGeHdjnioQFhf-42" value="" style="group" vertex="1" connectable="0" parent="1">
          <mxGeometry x="130" y="310" width="280" height="120" as="geometry" />
        </mxCell>
        <mxCell id="A9zCDarpGeHdjnioQFhf-43" value="" style="group" vertex="1" connectable="0" parent="A9zCDarpGeHdjnioQFhf-42">
          <mxGeometry y="30" width="149.5" height="90" as="geometry" />
        </mxCell>
        <mxCell id="A9zCDarpGeHdjnioQFhf-44" style="edgeStyle=orthogonalEdgeStyle;rounded=0;orthogonalLoop=1;jettySize=auto;html=1;exitX=0;exitY=0.25;exitDx=0;exitDy=0;endArrow=none;endFill=0;" edge="1" parent="A9zCDarpGeHdjnioQFhf-43" source="A9zCDarpGeHdjnioQFhf-45">
          <mxGeometry relative="1" as="geometry">
            <mxPoint x="9.5" y="9.999999999999943" as="targetPoint" />
          </mxGeometry>
        </mxCell>
        <mxCell id="A9zCDarpGeHdjnioQFhf-45" value="" style="rounded=0;whiteSpace=wrap;html=1;" vertex="1" parent="A9zCDarpGeHdjnioQFhf-43">
          <mxGeometry x="29.5" width="30" height="80" as="geometry" />
        </mxCell>
        <mxCell id="A9zCDarpGeHdjnioQFhf-46" value="" style="triangle;whiteSpace=wrap;html=1;rotation=0;" vertex="1" parent="A9zCDarpGeHdjnioQFhf-43">
          <mxGeometry x="29.5" y="50" width="15" height="20" as="geometry" />
        </mxCell>
        <mxCell id="A9zCDarpGeHdjnioQFhf-47" value="" style="rounded=0;whiteSpace=wrap;html=1;" vertex="1" parent="A9zCDarpGeHdjnioQFhf-43">
          <mxGeometry x="59.5" width="30" height="80" as="geometry" />
        </mxCell>
        <mxCell id="A9zCDarpGeHdjnioQFhf-48" value="" style="rounded=0;whiteSpace=wrap;html=1;" vertex="1" parent="A9zCDarpGeHdjnioQFhf-43">
          <mxGeometry x="89.5" width="30" height="80" as="geometry" />
        </mxCell>
        <mxCell id="A9zCDarpGeHdjnioQFhf-49" value="" style="rounded=0;whiteSpace=wrap;html=1;" vertex="1" parent="A9zCDarpGeHdjnioQFhf-43">
          <mxGeometry x="119.5" width="30" height="80" as="geometry" />
        </mxCell>
        <mxCell id="A9zCDarpGeHdjnioQFhf-50" value="" style="edgeStyle=orthogonalEdgeStyle;orthogonalLoop=1;jettySize=auto;html=1;rounded=0;endArrow=none;endFill=0;" edge="1" parent="A9zCDarpGeHdjnioQFhf-43">
          <mxGeometry width="80" relative="1" as="geometry">
            <mxPoint y="10" as="sourcePoint" />
            <mxPoint x="20" y="10" as="targetPoint" />
            <Array as="points">
              <mxPoint x="20" y="10" />
              <mxPoint x="20" y="10" />
            </Array>
          </mxGeometry>
        </mxCell>
        <mxCell id="A9zCDarpGeHdjnioQFhf-51" value="" style="ellipse;whiteSpace=wrap;html=1;aspect=fixed;" vertex="1" parent="A9zCDarpGeHdjnioQFhf-43">
          <mxGeometry x="79.5" y="80" width="10" height="10" as="geometry" />
        </mxCell>
        <mxCell id="A9zCDarpGeHdjnioQFhf-52" value="CT_CpuPwrOkRVDD_AON_SyncSTBLCLK" style="text;whiteSpace=wrap;fontFamily=Helvetica;fontSize=11;fontColor=default;labelBackgroundColor=default;" vertex="1" parent="A9zCDarpGeHdjnioQFhf-42">
          <mxGeometry x="30" width="250" height="40" as="geometry" />
        </mxCell>
        <mxCell id="A9zCDarpGeHdjnioQFhf-53" value="" style="group" vertex="1" connectable="0" parent="1">
          <mxGeometry x="130" y="450" width="230" height="120" as="geometry" />
        </mxCell>
        <mxCell id="A9zCDarpGeHdjnioQFhf-54" value="" style="group" vertex="1" connectable="0" parent="A9zCDarpGeHdjnioQFhf-53">
          <mxGeometry y="30" width="149.5" height="90" as="geometry" />
        </mxCell>
        <mxCell id="A9zCDarpGeHdjnioQFhf-55" style="edgeStyle=orthogonalEdgeStyle;rounded=0;orthogonalLoop=1;jettySize=auto;html=1;exitX=0;exitY=0.25;exitDx=0;exitDy=0;endArrow=none;endFill=0;" edge="1" parent="A9zCDarpGeHdjnioQFhf-54" source="A9zCDarpGeHdjnioQFhf-56">
          <mxGeometry relative="1" as="geometry">
            <mxPoint x="9.5" y="9.999999999999943" as="targetPoint" />
          </mxGeometry>
        </mxCell>
        <mxCell id="A9zCDarpGeHdjnioQFhf-56" value="" style="rounded=0;whiteSpace=wrap;html=1;" vertex="1" parent="A9zCDarpGeHdjnioQFhf-54">
          <mxGeometry x="29.5" width="30" height="80" as="geometry" />
        </mxCell>
        <mxCell id="A9zCDarpGeHdjnioQFhf-57" value="" style="triangle;whiteSpace=wrap;html=1;rotation=0;" vertex="1" parent="A9zCDarpGeHdjnioQFhf-54">
          <mxGeometry x="29.5" y="50" width="15" height="20" as="geometry" />
        </mxCell>
        <mxCell id="A9zCDarpGeHdjnioQFhf-58" value="" style="rounded=0;whiteSpace=wrap;html=1;" vertex="1" parent="A9zCDarpGeHdjnioQFhf-54">
          <mxGeometry x="59.5" width="30" height="80" as="geometry" />
        </mxCell>
        <mxCell id="A9zCDarpGeHdjnioQFhf-59" value="" style="rounded=0;whiteSpace=wrap;html=1;" vertex="1" parent="A9zCDarpGeHdjnioQFhf-54">
          <mxGeometry x="89.5" width="30" height="80" as="geometry" />
        </mxCell>
        <mxCell id="A9zCDarpGeHdjnioQFhf-60" value="" style="rounded=0;whiteSpace=wrap;html=1;" vertex="1" parent="A9zCDarpGeHdjnioQFhf-54">
          <mxGeometry x="119.5" width="30" height="80" as="geometry" />
        </mxCell>
        <mxCell id="A9zCDarpGeHdjnioQFhf-61" value="" style="edgeStyle=orthogonalEdgeStyle;orthogonalLoop=1;jettySize=auto;html=1;rounded=0;endArrow=none;endFill=0;" edge="1" parent="A9zCDarpGeHdjnioQFhf-54">
          <mxGeometry width="80" relative="1" as="geometry">
            <mxPoint y="10" as="sourcePoint" />
            <mxPoint x="20" y="10" as="targetPoint" />
            <Array as="points">
              <mxPoint x="20" y="10" />
              <mxPoint x="20" y="10" />
            </Array>
          </mxGeometry>
        </mxCell>
        <mxCell id="A9zCDarpGeHdjnioQFhf-62" value="" style="ellipse;whiteSpace=wrap;html=1;aspect=fixed;" vertex="1" parent="A9zCDarpGeHdjnioQFhf-54">
          <mxGeometry x="79.5" y="80" width="10" height="10" as="geometry" />
        </mxCell>
        <mxCell id="A9zCDarpGeHdjnioQFhf-63" value="L3_CORE_IReset_SyncSTBLCLK" style="text;whiteSpace=wrap;fontFamily=Helvetica;fontSize=11;fontColor=default;labelBackgroundColor=default;" vertex="1" parent="A9zCDarpGeHdjnioQFhf-53">
          <mxGeometry x="30" width="200" height="40" as="geometry" />
        </mxCell>
        <mxCell id="A9zCDarpGeHdjnioQFhf-64" value="~TL_InitPkgScanEn_Sync" style="text;whiteSpace=wrap;fontFamily=Helvetica;fontSize=11;fontColor=default;labelBackgroundColor=default;" vertex="1" parent="1">
          <mxGeometry x="0.5" y="640" width="120" height="40" as="geometry" />
        </mxCell>
        <mxCell id="A9zCDarpGeHdjnioQFhf-65" style="edgeStyle=orthogonalEdgeStyle;shape=connector;rounded=0;orthogonalLoop=1;jettySize=auto;html=1;entryX=0;entryY=0.75;entryDx=0;entryDy=0;entryPerimeter=0;strokeColor=default;align=center;verticalAlign=middle;fontFamily=Helvetica;fontSize=11;fontColor=default;labelBackgroundColor=default;endArrow=none;endFill=0;exitX=1;exitY=0.25;exitDx=0;exitDy=0;" edge="1" parent="1" source="A9zCDarpGeHdjnioQFhf-69" target="A9zCDarpGeHdjnioQFhf-41">
          <mxGeometry relative="1" as="geometry">
            <Array as="points">
              <mxPoint x="370" y="660" />
              <mxPoint x="370" y="500" />
            </Array>
          </mxGeometry>
        </mxCell>
        <mxCell id="A9zCDarpGeHdjnioQFhf-66" value="AN4" style="shape=or;whiteSpace=wrap;html=1;points=[[0,0.2,0,0,0],[0,0.4,0,0,0],[0,0.6,0,0,0],[0,0.8,0,0,0],[0.7,0.1,0,0,0],[0.7,0.9,0,0,0],[1,0.5,0,0,0]];" vertex="1" parent="1">
          <mxGeometry x="560" width="30" height="40" as="geometry" />
        </mxCell>
        <mxCell id="A9zCDarpGeHdjnioQFhf-67" value="SCFCTP_C6Exit" style="text;whiteSpace=wrap;fontFamily=Helvetica;fontSize=11;fontColor=default;labelBackgroundColor=default;" vertex="1" parent="1">
          <mxGeometry x="160" y="610" width="120" height="40" as="geometry" />
        </mxCell>
        <mxCell id="A9zCDarpGeHdjnioQFhf-68" value="" style="group" vertex="1" connectable="0" parent="1">
          <mxGeometry x="160" y="640" width="60" height="80" as="geometry" />
        </mxCell>
        <mxCell id="A9zCDarpGeHdjnioQFhf-69" value="dff_noscan" style="rounded=0;whiteSpace=wrap;html=1;" vertex="1" parent="A9zCDarpGeHdjnioQFhf-68">
          <mxGeometry width="60" height="80" as="geometry" />
        </mxCell>
        <mxCell id="A9zCDarpGeHdjnioQFhf-70" value="" style="triangle;whiteSpace=wrap;html=1;rotation=0;" vertex="1" parent="A9zCDarpGeHdjnioQFhf-68">
          <mxGeometry y="50" width="15" height="20" as="geometry" />
        </mxCell>
        <mxCell id="A9zCDarpGeHdjnioQFhf-71" value="" style="edgeStyle=orthogonalEdgeStyle;shape=connector;rounded=0;orthogonalLoop=1;jettySize=auto;html=1;strokeColor=default;align=center;verticalAlign=middle;fontFamily=Helvetica;fontSize=11;fontColor=default;labelBackgroundColor=default;endArrow=none;endFill=0;exitX=0;exitY=0.25;exitDx=0;exitDy=0;" edge="1" parent="1" source="A9zCDarpGeHdjnioQFhf-69" target="A9zCDarpGeHdjnioQFhf-64">
          <mxGeometry relative="1" as="geometry" />
        </mxCell>
      </root>
    </mxGraphModel>
  </diagram>
</mxfile>
